<svg width="13" height="17" viewBox="0 0 13 17" fill="none" xmlns="http://www.w3.org/2000/svg">
<path d="M6.18519 0.298935C7.19753 0.298935 8.05556 0.653873 8.75926 1.36375C9.46296 2.07363 9.81482 2.94091 9.81482 3.9656V5.50264H10.9074C11.3148 5.50264 11.6636 5.6477 11.9537 5.93782C12.2438 6.22795 12.3889 6.57671 12.3889 6.98412V14.836C12.3889 15.231 12.2438 15.5736 11.9537 15.8637C11.6636 16.1539 11.3148 16.2989 10.9074 16.2989H1.46296C1.05556 16.2989 0.709876 16.1539 0.425926 15.8637C0.141975 15.5736 0 15.231 0 14.836V6.98412C0 6.57671 0.141975 6.22795 0.425926 5.93782C0.709876 5.6477 1.05556 5.50264 1.46296 5.50264H2.55556V3.9656C2.55556 2.94091 2.90741 2.07363 3.61111 1.36375C4.31481 0.653873 5.17284 0.298935 6.18519 0.298935ZM6.18519 1.7619C5.58025 1.7619 5.0679 1.97486 4.64815 2.40079C4.2284 2.82671 4.01852 3.34832 4.01852 3.9656V5.50264H8.35185V3.9656C8.35185 3.34832 8.14198 2.82671 7.72222 2.40079C7.30247 1.97486 6.79012 1.7619 6.18519 1.7619ZM1.46296 14.836H10.9074V6.98412H1.46296V14.836ZM6.18519 9.48412C5.79012 9.48412 5.4537 9.63535 5.17593 9.93782C4.89815 10.2403 4.75926 10.5767 4.75926 10.9471C4.75926 11.3298 4.89815 11.657 5.17593 11.9286C5.4537 12.2002 5.79012 12.336 6.18519 12.336C6.58025 12.336 6.91667 12.2002 7.19444 11.9286C7.47222 11.657 7.61111 11.3298 7.61111 10.9471C7.61111 10.5767 7.47222 10.2403 7.19444 9.93782C6.91667 9.63535 6.58025 9.48412 6.18519 9.48412ZM1.46296 6.98412V14.836V6.98412Z" fill="#B8BABC"/>
</svg>
