<svg width="16" height="17" viewBox="0 0 16 17" fill="none" xmlns="http://www.w3.org/2000/svg">
<path d="M7.88201 8.06296C6.74926 8.06296 5.82104 7.70111 5.09735 6.97742C4.37365 6.25372 4.0118 5.3255 4.0118 4.19276C4.0118 3.04428 4.37365 2.10819 5.09735 1.3845C5.82104 0.660799 6.74926 0.29895 7.88201 0.29895C9.01475 0.29895 9.9469 0.660799 10.6785 1.3845C11.41 2.10819 11.7758 3.04428 11.7758 4.19276C11.7758 5.3255 11.41 6.25372 10.6785 6.97742C9.9469 7.70111 9.01475 8.06296 7.88201 8.06296ZM0 16.299V13.7267C0 13.0816 0.165192 12.5192 0.495575 12.0394C0.825959 11.5595 1.2586 11.1937 1.79351 10.942C2.86332 10.4543 3.89381 10.0925 4.88496 9.85647C5.87611 9.62048 6.87512 9.50249 7.88201 9.50249C8.90462 9.50249 9.90757 9.62442 10.8909 9.86827C11.8741 10.1121 12.8928 10.47 13.9469 10.942C14.4975 11.178 14.942 11.5359 15.2802 12.0158C15.6185 12.4956 15.7876 13.0659 15.7876 13.7267V16.299H0ZM1.86431 14.4346H13.8997V13.7739C13.8997 13.5379 13.825 13.3058 13.6755 13.0777C13.5261 12.8496 13.3412 12.6883 13.1209 12.5939C12.1455 12.122 11.2527 11.7994 10.4425 11.6264C9.63225 11.4533 8.77876 11.3668 7.88201 11.3668C7.00098 11.3668 6.13963 11.4533 5.29794 11.6264C4.45624 11.7994 3.56342 12.122 2.61947 12.5939C2.39921 12.6883 2.21829 12.8496 2.0767 13.0777C1.9351 13.3058 1.86431 13.5379 1.86431 13.7739V14.4346ZM7.88201 6.17506C8.46411 6.17506 8.94395 5.98627 9.32153 5.60869C9.69912 5.2311 9.88791 4.75913 9.88791 4.19276C9.88791 3.59492 9.69912 3.11114 9.32153 2.74143C8.94395 2.37171 8.46411 2.18686 7.88201 2.18686C7.2999 2.18686 6.82006 2.37171 6.44248 2.74143C6.0649 3.11114 5.87611 3.58705 5.87611 4.16916C5.87611 4.75126 6.0649 5.2311 6.44248 5.60869C6.82006 5.98627 7.2999 6.17506 7.88201 6.17506Z" fill="#B8BABC"/>
</svg>
